{
	"asset":{
		"version":"2.0",
		"generator":"Created using the official Cinema 4D glTF Exporter 1.000x284978"
	},
	"scenes":[{
		"nodes":[0]
	}],
	"buffers":[{
		"uri":"data:application/octet-stream;base64,",
		"byteLength":5152
	},
	{
		"uri":"data:application/octet-stream;base64,",
		"byteLength":5152
	}],
	"nodes":[{
		"name":"Null",
		"translation":[-109.03099060058594,
		0.7583548426628113,
		0.0],
		"rotation":[0.0,
		0.0,
		0.7071067690849304,
		-0.7071067690849304],
		"scale":[1.0,
		1.0,
		1.0],
		"children":[1,
		2]
	},
	{
		"name":"Cone.1",
		"translation":[0.0,
		209.38632202148438,
		0.0],
		"rotation":[0.0,
		0.0,
		0.0,
		-1.0],
		"scale":[1.0,
		1.0,
		1.0],
		"mesh":0
	},
	{
		"name":"Cone",
		"mesh":1
	}],
	"meshes":[{
		"name":"Cone.1",
		"primitives":[{
			"attributes":{
				"POSITION":1,
				"NORMAL":2,
				"TEXCOORD_0":3
			},
			"indices":0,
			"material":0
		}]
	},
	{
		"name":"Cone",
		"primitives":[{
			"attributes":{
				"POSITION":5,
				"NORMAL":6,
				"TEXCOORD_0":7
			},
			"indices":4,
			"material":0
		}]
	}],
	"accessors":[{
		"bufferView":0,
		"type":"SCALAR",
		"max":[133],
		"componentType":5123,
		"count":432,
		"byteOffset":0,
		"min":[0]
	},
	{
		"bufferView":1,
		"type":"VEC3",
		"max":[100.0,
		100.0,
		100.0],
		"componentType":5126,
		"count":134,
		"byteOffset":0,
		"min":[-100.0,
		-100.0,
		-100.0]
	},
	{
		"bufferView":1,
		"type":"VEC3",
		"max":[0.8944271802902222,
		0.44721361994743349,
		0.8944271802902222],
		"componentType":5126,
		"count":134,
		"byteOffset":12,
		"min":[-0.8944271802902222,
		-1.0,
		-0.8944271802902222]
	},
	{
		"bufferView":1,
		"type":"VEC2",
		"max":[1.0,
		1.0],
		"componentType":5126,
		"count":134,
		"byteOffset":24,
		"min":[0.0,
		0.0]
	},
	{
		"bufferView":2,
		"type":"SCALAR",
		"max":[133],
		"componentType":5123,
		"count":432,
		"byteOffset":0,
		"min":[0]
	},
	{
		"bufferView":3,
		"type":"VEC3",
		"max":[100.0,
		100.0,
		100.0],
		"componentType":5126,
		"count":134,
		"byteOffset":0,
		"min":[-100.0,
		-100.0,
		-100.0]
	},
	{
		"bufferView":3,
		"type":"VEC3",
		"max":[0.8944271802902222,
		0.44721361994743349,
		0.8944271802902222],
		"componentType":5126,
		"count":134,
		"byteOffset":12,
		"min":[-0.8944271802902222,
		-1.0,
		-0.8944271802902222]
	},
	{
		"bufferView":3,
		"type":"VEC2",
		"max":[1.0,
		1.0],
		"componentType":5126,
		"count":134,
		"byteOffset":24,
		"min":[0.0,
		0.0]
	}],
	"bufferViews":[{
		"buffer":0,
		"byteOffset":0,
		"byteLength":864,
		"target":34963
	},
	{
		"buffer":0,
		"byteOffset":864,
		"byteLength":4288,
		"target":34962,
		"byteStride":32
	},
	{
		"buffer":1,
		"byteOffset":0,
		"byteLength":864,
		"target":34963
	},
	{
		"buffer":1,
		"byteOffset":864,
		"byteLength":4288,
		"target":34962,
		"byteStride":32
	}],
	"materials":[{
		"emissiveFactor":[0.0,
		0.0,
		0.0],
		"pbrMetallicRoughness":{
			"baseColorFactor":[1.0,
			1.0,
			1.0,
			1.0],
			"metallicFactor":1.0,
			"roughnessFactor":0.0
		},
		"alphaMode":"OPAQUE",
		"doubleSided":false,
		"name":"Metal - Aluminum"
	}]
}