{
	"asset":{
		"version":"2.0",
		"generator":"Created using the official Cinema 4D glTF Exporter 1.000x284978"
	},
	"scenes":[{
		"nodes":[0]
	}],
	"buffers":[{
		"uri":"data:application/octet-stream;base64,",
		"byteLength":58048
	}],
	"nodes":[{
		"name":"Loft",
		"translation":[-99.72054290771485,
		32.107177734375,
		32.775978088378909],
		"children":[1],
		"rotation":[-0.7071067690849304,
		0.0,
		0.0,
		-0.7071067690849304],
		"scale":[1.0,
		1.0,
		1.0]
	},
	{
		"name":"Loft",
		"mesh":0
	}],
	"materials":[{
		"pbrMetallicRoughness":{
			"baseColorFactor":[0.8,
			0.8,
			0.8,
			1.0],
			"metallicFactor":1.0,
			"roughnessFactor":0.17
		},
		"emissiveFactor":[0.0,
		0.0,
		0.0],
		"alphaMode":"OPAQUE",
		"doubleSided":false,
		"name":"Abstract Paint 12"
	}],
	"meshes":[{
		"name":"Loft",
		"primitives":[{
			"attributes":{
				"POSITION":1,
				"NORMAL":2,
				"TEXCOORD_0":3
			},
			"indices":0,
			"material":0
		}]
	}],
	"accessors":[{
		"bufferView":0,
		"type":"SCALAR",
		"componentType":5123,
		"count":6384,
		"byteOffset":0,
		"min":[0],
		"max":[1414]
	},
	{
		"bufferView":1,
		"type":"VEC3",
		"componentType":5126,
		"count":1415,
		"byteOffset":0,
		"min":[-7.557155609130859,
		-118.48535919189453,
		-206.61216735839845],
		"max":[242.01394653320313,
		6.947871208190918,
		172.45938110351563]
	},
	{
		"bufferView":1,
		"type":"VEC3",
		"componentType":5126,
		"count":1415,
		"byteOffset":12,
		"min":[-0.9999956488609314,
		-0.9999998211860657,
		-0.9999452233314514],
		"max":[0.9997609853744507,
		0.9999839067459106,
		0.9962354898452759]
	},
	{
		"bufferView":1,
		"type":"VEC2",
		"componentType":5126,
		"count":1415,
		"byteOffset":24,
		"min":[0.0,
		0.0],
		"max":[1.0,
		1.0]
	}],
	"bufferViews":[{
		"buffer":0,
		"byteOffset":0,
		"target":34963,
		"byteLength":12768
	},
	{
		"buffer":0,
		"byteOffset":12768,
		"target":34962,
		"byteLength":45280,
		"byteStride":32
	}]
}