{
	"asset":{
		"version":"2.0",
		"generator":"Created using the official Cinema 4D glTF Exporter 1.000x284978"
	},
	"scenes":[{
		"nodes":[0,
		1]
	}],
	"nodes":[{
		"name":"Retopo_Sphere_1",
		"translation":[7.544520854949951,
		-172.8935089111328,
		73.7738265991211],
		"rotation":[0.0,
		0.0,
		0.0,
		-1.0],
		"scale":[1.0,
		1.0,
		1.0],
		"mesh":0
	},
	{
		"name":"Camera",
		"translation":[-6.981344699859619,
		70.69517517089844,
		2993.04345703125],
		"rotation":[-1.3877787807814458e-17,
		-5.665538686387998e-16,
		-7.862514370665649e-33,
		1.0],
		"scale":[1.0,
		1.0,
		1.0],
		"camera":0
	}],
	"meshes":[{
		"name":"Retopo_Sphere_1",
		"primitives":[{
			"attributes":{
				"POSITION":1,
				"NORMAL":2
			},
			"indices":0
		}]
	}],
	"cameras":[{
		"type":"perspective",
		"perspective":{
			"znear":0.009999999776482582,
			"zfar":10000000000.0,
			"aspectRatio":1.7777777910232545,
			"yfov":0.149719700217247
		}
	}],
	"accessors":[{
		"type":"SCALAR",
		"bufferView":0,
		"componentType":5123,
		"count":35226,
		"byteOffset":0,
		"min":[0],
		"max":[6569]
	},
	{
		"type":"VEC3",
		"bufferView":1,
		"componentType":5126,
		"count":6570,
		"byteOffset":0,
		"min":[-379.8280029296875,
		88.87406921386719,
		-277.4779357910156],
		"max":[365.427978515625,
		385.3838195800781,
		130.09178161621095]
	},
	{
		"type":"VEC3",
		"bufferView":1,
		"componentType":5126,
		"count":6570,
		"byteOffset":12,
		"min":[-0.999935507774353,
		-0.9999985694885254,
		-0.9999702572822571],
		"max":[0.9999421834945679,
		0.9999967813491821,
		0.9999997019767761]
	}],
	"bufferViews":[{
		"buffer":0,
		"byteOffset":0,
		"byteLength":70452,
		"target":34963
	},
	{
		"buffer":0,
		"byteOffset":70452,
		"byteLength":157680,
		"target":34962,
		"byteStride":24
	}],
	"buffers":[{
		"uri":"data:application/octet-stream;base64,",
		"byteLength":228132
	}]
}