{
	"asset":{
		"generator":"Created using the official Cinema 4D glTF Exporter 1.000x284978",
		"version":"2.0"
	},
	"scenes":[{
		"nodes":[0]
	}],
	"meshes":[{
		"name":"Loft",
		"primitives":[{
			"indices":0,
			"attributes":{
				"POSITION":1
			},
			"material":0
		}]
	}],
	"nodes":[{
		"name":"Loft",
		"translation":[0.0,
		182.0,
		267.7851867675781],
		"rotation":[0.7071067690849304,
		0.0,
		0.0,
		-0.7071067690849304],
		"scale":[1.0,
		1.0,
		1.0],
		"children":[1]
	},
	{
		"name":"Loft",
		"mesh":0
	}],
	"accessors":[{
		"bufferView":0,
		"byteOffset":0,
		"type":"SCALAR",
		"componentType":5123,
		"count":6384,
		"min":[0],
		"max":[1063]
	},
	{
		"bufferView":1,
		"byteOffset":0,
		"type":"VEC3",
		"componentType":5126,
		"count":1064,
		"min":[-7.557155609130859,
		-118.48535919189453,
		-172.45938110351563],
		"max":[242.01394653320313,
		6.947871208190918,
		206.61216735839845]
	}],
	"bufferViews":[{
		"buffer":0,
		"byteOffset":0,
		"byteLength":12768,
		"target":34963
	},
	{
		"buffer":0,
		"byteOffset":12768,
		"byteLength":12768,
		"target":34962
	}],
	"buffers":[{
		"uri":"data:application/octet-stream;base64,",
		"byteLength":25536
	}],
	"materials":[{
		"pbrMetallicRoughness":{
			"baseColorFactor":[0.8,
			0.8,
			0.8,
			1.0],
			"metallicFactor":1.0,
			"roughnessFactor":0.17
		},
		"emissiveFactor":[0.0,
		0.0,
		0.0],
		"alphaMode":"OPAQUE",
		"doubleSided":false,
		"name":"Abstract Paint 12"
	}]
}