{
  "accessors": [
    {
      "bufferView": 0,
      "componentType": 5126,
      "count": 65535,
      "max": [
        1.3513436317443848,
        0.41618800163269043,
        1.2696596384048462
      ],
      "min": [
        -1.2270714044570923,
        -0.4953020215034485,
        -1.1997863054275513
      ],
      "type": "VEC3"
    },
    {
      "bufferView": 0,
      "byteOffset": 786420,
      "componentType": 5126,
      "count": 65535,
      "max": [
        0.999988853931427,
        0.9999998807907104,
        0.9999630451202393
      ],
      "min": [
        -0.9999518394470215,
        -0.9999252557754517,
        -0.9998368620872498
      ],
      "type": "VEC3"
    },
    {
      "bufferView": 1,
      "componentType": 5126,
      "count": 65535,
      "max": [
        1.0,
        1.0,
        1.0,
        1.0
      ],
      "min": [
        0.0,
        0.0,
        0.0,
        1.0
      ],
      "type": "VEC4"
    },
    {
      "bufferView": 0,
      "byteOffset": 1572840,
      "componentType": 5126,
      "count": 65535,
      "max": [
        1.3656947612762451,
        0.4984981417655945,
        1.2152869701385498
      ],
      "min": [
        -1.364302396774292,
        -0.500908613204956,
        -1.117033839225769
      ],
      "type": "VEC3"
    },
    {
      "bufferView": 0,
      "byteOffset": 2359260,
      "componentType": 5126,
      "count": 65535,
      "max": [
        0.9999940395355225,
        0.9999997019767761,
        0.9999960064888
      ],
      "min": [
        -0.9999945163726807,
        -0.9999995827674866,
        -0.99985271692276
      ],
      "type": "VEC3"
    },
    {
      "bufferView": 1,
      "byteOffset": 1048560,
      "componentType": 5126,
      "count": 65535,
      "max": [
        1.0,
        1.0,
        1.0,
        1.0
      ],
      "min": [
        0.0,
        0.0,
        0.0,
        1.0
      ],
      "type": "VEC4"
    },
    {
      "bufferView": 0,
      "byteOffset": 3145680,
      "componentType": 5126,
      "count": 26960,
      "max": [
        1.1395461559295654,
        0.4272855818271637,
        0.8386814594268799
      ],
      "min": [
        -1.0754486322402954,
        -0.4956268072128296,
        -1.2682619094848633
      ],
      "type": "VEC3"
    },
    {
      "bufferView": 0,
      "byteOffset": 3469200,
      "componentType": 5126,
      "count": 26960,
      "max": [
        0.9999467730522156,
        0.9999956488609314,
        0.9927332401275635
      ],
      "min": [
        -0.9902033805847168,
        -0.9981797337532043,
        -0.9996876120567322
      ],
      "type": "VEC3"
    },
    {
      "bufferView": 1,
      "byteOffset": 2097120,
      "componentType": 5126,
      "count": 26960,
      "max": [
        1.0,
        1.0,
        1.0,
        1.0
      ],
      "min": [
        0.0,
        0.0,
        0.0,
        1.0
      ],
      "type": "VEC4"
    }
  ],
  "asset": {
    "extras": {
      "author": "stevencmutter (https://sketchfab.com/stevencmutter)",
      "license": "CC-BY-NC-ND-4.0 (http://creativecommons.org/licenses/by-nc-nd/4.0/)",
      "source": "https://sketchfab.com/3d-models/frog-on-the-bench-pointcloud-d0a6d29ae43e4bd695a51e7c2ad01ef2",
      "title": "Frog on the Bench Pointcloud"
    },
    "generator": "Sketchfab-12.42.0",
    "version": "2.0"
  },
  "bufferViews": [
    {
      "buffer": 0,
      "byteLength": 3792720,
      "byteStride": 12,
      "name": "floatBufferViews",
      "target": 34962
    },
    {
      "buffer": 0,
      "byteLength": 2528480,
      "byteOffset": 3792720,
      "byteStride": 16,
      "name": "floatBufferViews",
      "target": 34962
    }
  ],
  "buffers": [
    {
      "byteLength": 6321200,
      "uri": "scene.bin"
    }
  ],
  "extensionsUsed": [
    "KHR_materials_unlit"
  ],
  "materials": [
    {
      "doubleSided": true,
      "extensions": {
        "KHR_materials_unlit": {}
      },
      "name": "Scene_-_Root",
      "pbrMetallicRoughness": {
        "metallicFactor": 0.0
      }
    }
  ],
  "meshes": [
    {
      "name": "Object_0",
      "primitives": [
        {
          "attributes": {
            "COLOR_0": 2,
            "NORMAL": 1,
            "POSITION": 0
          },
          "material": 0,
          "mode": 0
        }
      ]
    },
    {
      "name": "Object_1",
      "primitives": [
        {
          "attributes": {
            "COLOR_0": 5,
            "NORMAL": 4,
            "POSITION": 3
          },
          "material": 0,
          "mode": 0
        }
      ]
    },
    {
      "name": "Object_2",
      "primitives": [
        {
          "attributes": {
            "COLOR_0": 8,
            "NORMAL": 7,
            "POSITION": 6
          },
          "material": 0,
          "mode": 0
        }
      ]
    }
  ],
  "nodes": [
    {
      "children": [
        1
      ],
      "matrix": [
        1.7051723167102608,
        0.07211052917768512,
        1.6011753962194036e-17,
        0.0,
        -0.07208488124970902,
        1.704565820144694,
        -0.045517665158054284,
        0.0,
        -0.0019231908690489075,
        0.045477018850778324,
        1.7060892841778923,
        0.0,
        -4.951433584210463e-05,
        0.001853890367783606,
        0.0004759837756864731,
        1.0
      ],
      "name": "Sketchfab_model"
    },
    {
      "children": [
        2,
        3,
        4
      ],
      "name": "Geode"
    },
    {
      "mesh": 0,
      "name": "Object_2"
    },
    {
      "mesh": 1,
      "name": "Object_3"
    },
    {
      "mesh": 2,
      "name": "Object_4"
    }
  ],
  "scene": 0,
  "scenes": [
    {
      "name": "Sketchfab_Scene",
      "nodes": [
        0
      ]
    }
  ]
}
